<mxfile host="app.diagrams.net" modified="2024-03-22T12:54:09.141Z" agent="Mozilla/5.0 (Windows NT 10.0; Win64; x64) AppleWebKit/537.36 (KHTML, like Gecko) Chrome/122.0.0.0 Safari/537.36" etag="NR2d_QOAxiPBplyBX708" version="24.0.7" type="device" pages="2">
  <diagram id="R2lEEEUBdFMjLlhIrx00" name="Page-1">
    <mxGraphModel dx="1500" dy="-354" grid="1" gridSize="10" guides="1" tooltips="1" connect="1" arrows="1" fold="1" page="1" pageScale="1" pageWidth="850" pageHeight="1100" math="0" shadow="0" extFonts="Permanent Marker^https://fonts.googleapis.com/css?family=Permanent+Marker">
      <root>
        <mxCell id="0" />
        <mxCell id="1" parent="0" />
        <mxCell id="prlSk9jaepIru-q5QV4R-1" value="Usuario" style="rounded=0;whiteSpace=wrap;html=1;fillColor=#f5f5f5;fontColor=#333333;strokeColor=#666666;" parent="1" vertex="1">
          <mxGeometry x="920" y="1180" width="120" height="140" as="geometry" />
        </mxCell>
        <mxCell id="prlSk9jaepIru-q5QV4R-3" value="&lt;u&gt;ID_Usuario&lt;/u&gt;" style="text;html=1;strokeColor=none;fillColor=none;align=center;verticalAlign=middle;whiteSpace=wrap;rounded=0;fontSize=10;" parent="1" vertex="1">
          <mxGeometry x="1101.25" y="1180" width="30" height="20" as="geometry" />
        </mxCell>
        <mxCell id="prlSk9jaepIru-q5QV4R-5" value="Nombre" style="text;html=1;strokeColor=none;fillColor=none;align=center;verticalAlign=middle;whiteSpace=wrap;rounded=0;fontSize=10;" parent="1" vertex="1">
          <mxGeometry x="1090" y="1210" width="50" height="11.25" as="geometry" />
        </mxCell>
        <mxCell id="SG5QUIhqzF5ss1LKwUFm-7" value="Email" style="text;html=1;strokeColor=none;fillColor=none;align=center;verticalAlign=middle;whiteSpace=wrap;rounded=0;fontSize=10;" parent="1" vertex="1">
          <mxGeometry x="1095.62" y="1248.13" width="32.5" height="13.75" as="geometry" />
        </mxCell>
        <mxCell id="SG5QUIhqzF5ss1LKwUFm-8" value="Contraseña" style="text;html=1;strokeColor=none;fillColor=none;align=center;verticalAlign=middle;whiteSpace=wrap;rounded=0;fontSize=10;" parent="1" vertex="1">
          <mxGeometry x="1101.25" y="1265" width="32.5" height="15" as="geometry" />
        </mxCell>
        <mxCell id="nBVlsIxEcBWfv2FUrq1N-1" value="Apellido" style="text;html=1;strokeColor=none;fillColor=none;align=center;verticalAlign=middle;whiteSpace=wrap;rounded=0;fontSize=10;" parent="1" vertex="1">
          <mxGeometry x="1090" y="1230" width="50" height="11.25" as="geometry" />
        </mxCell>
        <mxCell id="mBOrtPpuqhOO7889HyFN-43" value="" style="group" vertex="1" connectable="0" parent="1">
          <mxGeometry x="1060" y="1190" width="20" height="10" as="geometry" />
        </mxCell>
        <mxCell id="mBOrtPpuqhOO7889HyFN-44" value="" style="endArrow=none;html=1;rounded=0;exitX=1.006;exitY=0.101;exitDx=0;exitDy=0;exitPerimeter=0;" edge="1" parent="mBOrtPpuqhOO7889HyFN-43" source="prlSk9jaepIru-q5QV4R-1">
          <mxGeometry width="50" height="50" relative="1" as="geometry">
            <mxPoint x="-12.5" y="5" as="sourcePoint" />
            <mxPoint x="10" y="4.739999999999782" as="targetPoint" />
            <Array as="points">
              <mxPoint y="4.739999999999782" />
            </Array>
          </mxGeometry>
        </mxCell>
        <mxCell id="mBOrtPpuqhOO7889HyFN-45" value="" style="ellipse;whiteSpace=wrap;html=1;aspect=fixed;fillColor=#000000;" vertex="1" parent="mBOrtPpuqhOO7889HyFN-43">
          <mxGeometry x="10" width="10" height="10" as="geometry" />
        </mxCell>
        <mxCell id="mBOrtPpuqhOO7889HyFN-46" value="" style="group" vertex="1" connectable="0" parent="1">
          <mxGeometry x="1060" y="1210" width="20" height="10" as="geometry" />
        </mxCell>
        <mxCell id="mBOrtPpuqhOO7889HyFN-47" value="" style="endArrow=none;html=1;rounded=0;exitX=1;exitY=0.25;exitDx=0;exitDy=0;" edge="1" parent="mBOrtPpuqhOO7889HyFN-46" source="prlSk9jaepIru-q5QV4R-1">
          <mxGeometry width="50" height="50" relative="1" as="geometry">
            <mxPoint x="-12.5" y="5" as="sourcePoint" />
            <mxPoint x="10" y="4.739999999999782" as="targetPoint" />
            <Array as="points">
              <mxPoint y="4.739999999999782" />
            </Array>
          </mxGeometry>
        </mxCell>
        <mxCell id="mBOrtPpuqhOO7889HyFN-48" value="" style="ellipse;whiteSpace=wrap;html=1;aspect=fixed;" vertex="1" parent="mBOrtPpuqhOO7889HyFN-46">
          <mxGeometry x="10" width="10" height="10" as="geometry" />
        </mxCell>
        <mxCell id="mBOrtPpuqhOO7889HyFN-52" value="" style="group" vertex="1" connectable="0" parent="1">
          <mxGeometry x="1060" y="1230" width="20" height="10" as="geometry" />
        </mxCell>
        <mxCell id="mBOrtPpuqhOO7889HyFN-53" value="" style="endArrow=none;html=1;rounded=0;exitX=1.003;exitY=0.39;exitDx=0;exitDy=0;exitPerimeter=0;" edge="1" parent="mBOrtPpuqhOO7889HyFN-52" source="prlSk9jaepIru-q5QV4R-1">
          <mxGeometry width="50" height="50" relative="1" as="geometry">
            <mxPoint x="-12.5" y="5" as="sourcePoint" />
            <mxPoint x="10" y="4.739999999999782" as="targetPoint" />
            <Array as="points">
              <mxPoint y="4.739999999999782" />
            </Array>
          </mxGeometry>
        </mxCell>
        <mxCell id="mBOrtPpuqhOO7889HyFN-54" value="" style="ellipse;whiteSpace=wrap;html=1;aspect=fixed;" vertex="1" parent="mBOrtPpuqhOO7889HyFN-52">
          <mxGeometry x="10" width="10" height="10" as="geometry" />
        </mxCell>
        <mxCell id="mBOrtPpuqhOO7889HyFN-55" value="" style="group" vertex="1" connectable="0" parent="1">
          <mxGeometry x="1060" y="1250" width="20" height="10" as="geometry" />
        </mxCell>
        <mxCell id="mBOrtPpuqhOO7889HyFN-56" value="" style="endArrow=none;html=1;rounded=0;exitX=1.003;exitY=0.533;exitDx=0;exitDy=0;exitPerimeter=0;" edge="1" parent="mBOrtPpuqhOO7889HyFN-55" source="prlSk9jaepIru-q5QV4R-1">
          <mxGeometry width="50" height="50" relative="1" as="geometry">
            <mxPoint x="-12.5" y="5" as="sourcePoint" />
            <mxPoint x="10" y="4.739999999999782" as="targetPoint" />
            <Array as="points">
              <mxPoint y="4.739999999999782" />
            </Array>
          </mxGeometry>
        </mxCell>
        <mxCell id="mBOrtPpuqhOO7889HyFN-57" value="" style="ellipse;whiteSpace=wrap;html=1;aspect=fixed;" vertex="1" parent="mBOrtPpuqhOO7889HyFN-55">
          <mxGeometry x="10" width="10" height="10" as="geometry" />
        </mxCell>
        <mxCell id="mBOrtPpuqhOO7889HyFN-58" value="" style="group" vertex="1" connectable="0" parent="1">
          <mxGeometry x="1060" y="1270" width="20" height="10" as="geometry" />
        </mxCell>
        <mxCell id="mBOrtPpuqhOO7889HyFN-59" value="" style="endArrow=none;html=1;rounded=0;exitX=0.997;exitY=0.679;exitDx=0;exitDy=0;exitPerimeter=0;" edge="1" parent="mBOrtPpuqhOO7889HyFN-58" source="prlSk9jaepIru-q5QV4R-1">
          <mxGeometry width="50" height="50" relative="1" as="geometry">
            <mxPoint x="-12.5" y="5" as="sourcePoint" />
            <mxPoint x="10" y="4.739999999999782" as="targetPoint" />
            <Array as="points">
              <mxPoint y="4.739999999999782" />
            </Array>
          </mxGeometry>
        </mxCell>
        <mxCell id="mBOrtPpuqhOO7889HyFN-60" value="" style="ellipse;whiteSpace=wrap;html=1;aspect=fixed;" vertex="1" parent="mBOrtPpuqhOO7889HyFN-58">
          <mxGeometry x="10" width="10" height="10" as="geometry" />
        </mxCell>
        <mxCell id="mBOrtPpuqhOO7889HyFN-61" value="&lt;font style=&quot;font-size: 9px;&quot;&gt;Recibe&lt;/font&gt;" style="rhombus;whiteSpace=wrap;html=1;fillColor=#e1d5e7;strokeColor=#9673a6;" vertex="1" parent="1">
          <mxGeometry x="1210" y="1219.37" width="115" height="45.63" as="geometry" />
        </mxCell>
        <mxCell id="mBOrtPpuqhOO7889HyFN-62" value="Notificación" style="rounded=0;whiteSpace=wrap;html=1;fillColor=#f5f5f5;fontColor=#333333;strokeColor=#666666;" vertex="1" parent="1">
          <mxGeometry x="1400" y="1180" width="120" height="140" as="geometry" />
        </mxCell>
        <mxCell id="mBOrtPpuqhOO7889HyFN-63" value="&lt;u&gt;ID_Notificacion&lt;/u&gt;" style="text;html=1;strokeColor=none;fillColor=none;align=center;verticalAlign=middle;whiteSpace=wrap;rounded=0;fontSize=10;" vertex="1" parent="1">
          <mxGeometry x="1581.25" y="1180" width="30" height="20" as="geometry" />
        </mxCell>
        <mxCell id="mBOrtPpuqhOO7889HyFN-64" value="Mensaje" style="text;html=1;strokeColor=none;fillColor=none;align=center;verticalAlign=middle;whiteSpace=wrap;rounded=0;fontSize=10;" vertex="1" parent="1">
          <mxGeometry x="1570" y="1210" width="50" height="11.25" as="geometry" />
        </mxCell>
        <mxCell id="mBOrtPpuqhOO7889HyFN-67" value="Fecha" style="text;html=1;strokeColor=none;fillColor=none;align=center;verticalAlign=middle;whiteSpace=wrap;rounded=0;fontSize=10;" vertex="1" parent="1">
          <mxGeometry x="1255" y="1175.31" width="50" height="11.25" as="geometry" />
        </mxCell>
        <mxCell id="mBOrtPpuqhOO7889HyFN-68" value="" style="group" vertex="1" connectable="0" parent="1">
          <mxGeometry x="1540" y="1190" width="20" height="10" as="geometry" />
        </mxCell>
        <mxCell id="mBOrtPpuqhOO7889HyFN-69" value="" style="endArrow=none;html=1;rounded=0;exitX=1.006;exitY=0.101;exitDx=0;exitDy=0;exitPerimeter=0;" edge="1" parent="mBOrtPpuqhOO7889HyFN-68" source="mBOrtPpuqhOO7889HyFN-62">
          <mxGeometry width="50" height="50" relative="1" as="geometry">
            <mxPoint x="-12.5" y="5" as="sourcePoint" />
            <mxPoint x="10" y="4.739999999999782" as="targetPoint" />
            <Array as="points">
              <mxPoint y="4.739999999999782" />
            </Array>
          </mxGeometry>
        </mxCell>
        <mxCell id="mBOrtPpuqhOO7889HyFN-70" value="" style="ellipse;whiteSpace=wrap;html=1;aspect=fixed;fillColor=#000000;" vertex="1" parent="mBOrtPpuqhOO7889HyFN-68">
          <mxGeometry x="10" width="10" height="10" as="geometry" />
        </mxCell>
        <mxCell id="mBOrtPpuqhOO7889HyFN-71" value="" style="group" vertex="1" connectable="0" parent="1">
          <mxGeometry x="1540" y="1210" width="20" height="10" as="geometry" />
        </mxCell>
        <mxCell id="mBOrtPpuqhOO7889HyFN-72" value="" style="endArrow=none;html=1;rounded=0;exitX=1;exitY=0.25;exitDx=0;exitDy=0;" edge="1" parent="mBOrtPpuqhOO7889HyFN-71" source="mBOrtPpuqhOO7889HyFN-62">
          <mxGeometry width="50" height="50" relative="1" as="geometry">
            <mxPoint x="-12.5" y="5" as="sourcePoint" />
            <mxPoint x="10" y="4.739999999999782" as="targetPoint" />
            <Array as="points">
              <mxPoint y="4.739999999999782" />
            </Array>
          </mxGeometry>
        </mxCell>
        <mxCell id="mBOrtPpuqhOO7889HyFN-73" value="" style="ellipse;whiteSpace=wrap;html=1;aspect=fixed;" vertex="1" parent="mBOrtPpuqhOO7889HyFN-71">
          <mxGeometry x="10" width="10" height="10" as="geometry" />
        </mxCell>
        <mxCell id="mBOrtPpuqhOO7889HyFN-74" value="" style="group" vertex="1" connectable="0" parent="1">
          <mxGeometry x="1270" y="1186.56" width="20" height="10" as="geometry" />
        </mxCell>
        <mxCell id="mBOrtPpuqhOO7889HyFN-75" value="" style="endArrow=none;html=1;rounded=0;exitX=0.587;exitY=0.035;exitDx=0;exitDy=0;exitPerimeter=0;" edge="1" parent="mBOrtPpuqhOO7889HyFN-74" source="mBOrtPpuqhOO7889HyFN-61">
          <mxGeometry width="50" height="50" relative="1" as="geometry">
            <mxPoint x="-12.5" y="5" as="sourcePoint" />
            <mxPoint x="10" y="4.739999999999782" as="targetPoint" />
            <Array as="points" />
          </mxGeometry>
        </mxCell>
        <mxCell id="mBOrtPpuqhOO7889HyFN-76" value="" style="ellipse;whiteSpace=wrap;html=1;aspect=fixed;" vertex="1" parent="mBOrtPpuqhOO7889HyFN-74">
          <mxGeometry x="5" width="10" height="10" as="geometry" />
        </mxCell>
        <mxCell id="mBOrtPpuqhOO7889HyFN-85" value="" style="endArrow=classic;html=1;rounded=0;entryX=1.03;entryY=0.856;entryDx=0;entryDy=0;entryPerimeter=0;exitX=0.5;exitY=1;exitDx=0;exitDy=0;" edge="1" parent="1" source="mBOrtPpuqhOO7889HyFN-61" target="prlSk9jaepIru-q5QV4R-1">
          <mxGeometry width="50" height="50" relative="1" as="geometry">
            <mxPoint x="1270" y="1300" as="sourcePoint" />
            <mxPoint x="1250" y="1270" as="targetPoint" />
            <Array as="points">
              <mxPoint x="1268" y="1300" />
            </Array>
          </mxGeometry>
        </mxCell>
        <mxCell id="mBOrtPpuqhOO7889HyFN-86" value="" style="endArrow=none;html=1;rounded=0;entryX=-0.025;entryY=0.444;entryDx=0;entryDy=0;entryPerimeter=0;exitX=1;exitY=0.5;exitDx=0;exitDy=0;" edge="1" parent="1" source="mBOrtPpuqhOO7889HyFN-61" target="mBOrtPpuqhOO7889HyFN-62">
          <mxGeometry width="50" height="50" relative="1" as="geometry">
            <mxPoint x="1200" y="1320" as="sourcePoint" />
            <mxPoint x="1250" y="1270" as="targetPoint" />
          </mxGeometry>
        </mxCell>
        <mxCell id="mBOrtPpuqhOO7889HyFN-88" value="ResetClaveToken" style="rounded=0;whiteSpace=wrap;html=1;fillColor=#f5f5f5;fontColor=#333333;strokeColor=#666666;" vertex="1" parent="1">
          <mxGeometry x="1400" y="1360" width="120" height="140" as="geometry" />
        </mxCell>
        <mxCell id="mBOrtPpuqhOO7889HyFN-89" value="&lt;u&gt;ID_Token&lt;/u&gt;" style="text;html=1;strokeColor=none;fillColor=none;align=center;verticalAlign=middle;whiteSpace=wrap;rounded=0;fontSize=10;" vertex="1" parent="1">
          <mxGeometry x="1581.25" y="1360" width="30" height="20" as="geometry" />
        </mxCell>
        <mxCell id="mBOrtPpuqhOO7889HyFN-90" value="Token" style="text;html=1;strokeColor=none;fillColor=none;align=center;verticalAlign=middle;whiteSpace=wrap;rounded=0;fontSize=10;" vertex="1" parent="1">
          <mxGeometry x="1570" y="1390" width="50" height="11.25" as="geometry" />
        </mxCell>
        <mxCell id="mBOrtPpuqhOO7889HyFN-94" value="" style="group" vertex="1" connectable="0" parent="1">
          <mxGeometry x="1540" y="1370" width="20" height="10" as="geometry" />
        </mxCell>
        <mxCell id="mBOrtPpuqhOO7889HyFN-95" value="" style="endArrow=none;html=1;rounded=0;exitX=1.006;exitY=0.101;exitDx=0;exitDy=0;exitPerimeter=0;" edge="1" parent="mBOrtPpuqhOO7889HyFN-94" source="mBOrtPpuqhOO7889HyFN-88">
          <mxGeometry width="50" height="50" relative="1" as="geometry">
            <mxPoint x="-12.5" y="5" as="sourcePoint" />
            <mxPoint x="10" y="4.739999999999782" as="targetPoint" />
            <Array as="points">
              <mxPoint y="4.739999999999782" />
            </Array>
          </mxGeometry>
        </mxCell>
        <mxCell id="mBOrtPpuqhOO7889HyFN-96" value="" style="ellipse;whiteSpace=wrap;html=1;aspect=fixed;fillColor=#000000;" vertex="1" parent="mBOrtPpuqhOO7889HyFN-94">
          <mxGeometry x="10" width="10" height="10" as="geometry" />
        </mxCell>
        <mxCell id="mBOrtPpuqhOO7889HyFN-97" value="" style="group" vertex="1" connectable="0" parent="1">
          <mxGeometry x="1540" y="1390" width="20" height="10" as="geometry" />
        </mxCell>
        <mxCell id="mBOrtPpuqhOO7889HyFN-98" value="" style="endArrow=none;html=1;rounded=0;exitX=1;exitY=0.25;exitDx=0;exitDy=0;" edge="1" parent="mBOrtPpuqhOO7889HyFN-97" source="mBOrtPpuqhOO7889HyFN-88">
          <mxGeometry width="50" height="50" relative="1" as="geometry">
            <mxPoint x="-12.5" y="5" as="sourcePoint" />
            <mxPoint x="10" y="4.739999999999782" as="targetPoint" />
            <Array as="points">
              <mxPoint y="4.739999999999782" />
            </Array>
          </mxGeometry>
        </mxCell>
        <mxCell id="mBOrtPpuqhOO7889HyFN-99" value="" style="ellipse;whiteSpace=wrap;html=1;aspect=fixed;" vertex="1" parent="mBOrtPpuqhOO7889HyFN-97">
          <mxGeometry x="10" width="10" height="10" as="geometry" />
        </mxCell>
        <mxCell id="mBOrtPpuqhOO7889HyFN-109" value="&lt;font style=&quot;font-size: 9px;&quot;&gt;Obtiene&lt;/font&gt;" style="rhombus;whiteSpace=wrap;html=1;fillColor=#e1d5e7;strokeColor=#9673a6;" vertex="1" parent="1">
          <mxGeometry x="1210" y="1404.06" width="115" height="45.63" as="geometry" />
        </mxCell>
        <mxCell id="mBOrtPpuqhOO7889HyFN-110" value="Fecha_expiracion" style="text;html=1;strokeColor=none;fillColor=none;align=center;verticalAlign=middle;whiteSpace=wrap;rounded=0;fontSize=10;" vertex="1" parent="1">
          <mxGeometry x="1255" y="1358.75" width="50" height="11.25" as="geometry" />
        </mxCell>
        <mxCell id="mBOrtPpuqhOO7889HyFN-111" value="" style="group" vertex="1" connectable="0" parent="1">
          <mxGeometry x="1270" y="1371.25" width="20" height="10" as="geometry" />
        </mxCell>
        <mxCell id="mBOrtPpuqhOO7889HyFN-112" value="" style="endArrow=none;html=1;rounded=0;exitX=0.587;exitY=0.035;exitDx=0;exitDy=0;exitPerimeter=0;" edge="1" parent="mBOrtPpuqhOO7889HyFN-111" source="mBOrtPpuqhOO7889HyFN-109">
          <mxGeometry width="50" height="50" relative="1" as="geometry">
            <mxPoint x="-12.5" y="5" as="sourcePoint" />
            <mxPoint x="10" y="4.739999999999782" as="targetPoint" />
            <Array as="points" />
          </mxGeometry>
        </mxCell>
        <mxCell id="mBOrtPpuqhOO7889HyFN-113" value="" style="ellipse;whiteSpace=wrap;html=1;aspect=fixed;" vertex="1" parent="mBOrtPpuqhOO7889HyFN-111">
          <mxGeometry x="5" width="10" height="10" as="geometry" />
        </mxCell>
        <mxCell id="mBOrtPpuqhOO7889HyFN-115" value="" style="endArrow=classic;html=1;rounded=0;entryX=0.907;entryY=1.019;entryDx=0;entryDy=0;entryPerimeter=0;exitX=0;exitY=0.5;exitDx=0;exitDy=0;" edge="1" parent="1" source="mBOrtPpuqhOO7889HyFN-109" target="prlSk9jaepIru-q5QV4R-1">
          <mxGeometry width="50" height="50" relative="1" as="geometry">
            <mxPoint x="1199.62" y="1348.13" as="sourcePoint" />
            <mxPoint x="976.62" y="1383.13" as="targetPoint" />
            <Array as="points">
              <mxPoint x="1029" y="1427" />
            </Array>
          </mxGeometry>
        </mxCell>
        <mxCell id="mBOrtPpuqhOO7889HyFN-116" value="" style="endArrow=classic;html=1;rounded=0;entryX=-0.013;entryY=0.47;entryDx=0;entryDy=0;exitX=1;exitY=0.5;exitDx=0;exitDy=0;entryPerimeter=0;" edge="1" parent="1" source="mBOrtPpuqhOO7889HyFN-109" target="mBOrtPpuqhOO7889HyFN-88">
          <mxGeometry width="50" height="50" relative="1" as="geometry">
            <mxPoint x="1230" y="1440" as="sourcePoint" />
            <mxPoint x="1280" y="1390" as="targetPoint" />
          </mxGeometry>
        </mxCell>
        <mxCell id="mBOrtPpuqhOO7889HyFN-118" value="AccionFavoritas" style="rounded=0;whiteSpace=wrap;html=1;fillColor=#f5f5f5;fontColor=#333333;strokeColor=#666666;" vertex="1" parent="1">
          <mxGeometry x="480" y="1180" width="120" height="140" as="geometry" />
        </mxCell>
        <mxCell id="mBOrtPpuqhOO7889HyFN-119" value="&lt;u&gt;ID_Favorito&lt;/u&gt;" style="text;html=1;strokeColor=none;fillColor=none;align=center;verticalAlign=middle;whiteSpace=wrap;rounded=0;fontSize=10;" vertex="1" parent="1">
          <mxGeometry x="661.25" y="1180" width="30" height="20" as="geometry" />
        </mxCell>
        <mxCell id="mBOrtPpuqhOO7889HyFN-124" value="" style="group" vertex="1" connectable="0" parent="1">
          <mxGeometry x="620" y="1190" width="20" height="10" as="geometry" />
        </mxCell>
        <mxCell id="mBOrtPpuqhOO7889HyFN-125" value="" style="endArrow=none;html=1;rounded=0;exitX=1.006;exitY=0.101;exitDx=0;exitDy=0;exitPerimeter=0;" edge="1" parent="mBOrtPpuqhOO7889HyFN-124" source="mBOrtPpuqhOO7889HyFN-118">
          <mxGeometry width="50" height="50" relative="1" as="geometry">
            <mxPoint x="-12.5" y="5" as="sourcePoint" />
            <mxPoint x="10" y="4.739999999999782" as="targetPoint" />
            <Array as="points">
              <mxPoint y="4.739999999999782" />
            </Array>
          </mxGeometry>
        </mxCell>
        <mxCell id="mBOrtPpuqhOO7889HyFN-126" value="" style="ellipse;whiteSpace=wrap;html=1;aspect=fixed;fillColor=#000000;" vertex="1" parent="mBOrtPpuqhOO7889HyFN-124">
          <mxGeometry x="10" width="10" height="10" as="geometry" />
        </mxCell>
        <mxCell id="mBOrtPpuqhOO7889HyFN-139" value="Cartera" style="rounded=0;whiteSpace=wrap;html=1;fillColor=#f5f5f5;fontColor=#333333;strokeColor=#666666;" vertex="1" parent="1">
          <mxGeometry x="918.74" y="1560" width="120" height="140" as="geometry" />
        </mxCell>
        <mxCell id="mBOrtPpuqhOO7889HyFN-140" value="&lt;u&gt;ID_Cartera&lt;/u&gt;" style="text;html=1;strokeColor=none;fillColor=none;align=center;verticalAlign=middle;whiteSpace=wrap;rounded=0;fontSize=10;" vertex="1" parent="1">
          <mxGeometry x="1099.9899999999998" y="1560" width="30" height="20" as="geometry" />
        </mxCell>
        <mxCell id="mBOrtPpuqhOO7889HyFN-141" value="Saldo" style="text;html=1;strokeColor=none;fillColor=none;align=center;verticalAlign=middle;whiteSpace=wrap;rounded=0;fontSize=10;" vertex="1" parent="1">
          <mxGeometry x="1076.8599999999997" y="1589.38" width="50" height="11.25" as="geometry" />
        </mxCell>
        <mxCell id="mBOrtPpuqhOO7889HyFN-142" value="Total_retirado" style="text;html=1;strokeColor=none;fillColor=none;align=center;verticalAlign=middle;whiteSpace=wrap;rounded=0;fontSize=10;" vertex="1" parent="1">
          <mxGeometry x="1094.3599999999997" y="1628.13" width="32.5" height="13.75" as="geometry" />
        </mxCell>
        <mxCell id="mBOrtPpuqhOO7889HyFN-144" value="Total_depositado" style="text;html=1;strokeColor=none;fillColor=none;align=center;verticalAlign=middle;whiteSpace=wrap;rounded=0;fontSize=10;" vertex="1" parent="1">
          <mxGeometry x="1094.3599999999997" y="1609.38" width="50" height="11.25" as="geometry" />
        </mxCell>
        <mxCell id="mBOrtPpuqhOO7889HyFN-145" value="" style="group" vertex="1" connectable="0" parent="1">
          <mxGeometry x="1058.74" y="1570" width="20" height="10" as="geometry" />
        </mxCell>
        <mxCell id="mBOrtPpuqhOO7889HyFN-146" value="" style="endArrow=none;html=1;rounded=0;exitX=1.006;exitY=0.101;exitDx=0;exitDy=0;exitPerimeter=0;" edge="1" parent="mBOrtPpuqhOO7889HyFN-145" source="mBOrtPpuqhOO7889HyFN-139">
          <mxGeometry width="50" height="50" relative="1" as="geometry">
            <mxPoint x="-12.5" y="5" as="sourcePoint" />
            <mxPoint x="10" y="4.739999999999782" as="targetPoint" />
            <Array as="points">
              <mxPoint y="4.739999999999782" />
            </Array>
          </mxGeometry>
        </mxCell>
        <mxCell id="mBOrtPpuqhOO7889HyFN-147" value="" style="ellipse;whiteSpace=wrap;html=1;aspect=fixed;fillColor=#000000;" vertex="1" parent="mBOrtPpuqhOO7889HyFN-145">
          <mxGeometry x="10" width="10" height="10" as="geometry" />
        </mxCell>
        <mxCell id="mBOrtPpuqhOO7889HyFN-148" value="" style="group" vertex="1" connectable="0" parent="1">
          <mxGeometry x="1058.74" y="1590" width="20" height="10" as="geometry" />
        </mxCell>
        <mxCell id="mBOrtPpuqhOO7889HyFN-149" value="" style="endArrow=none;html=1;rounded=0;exitX=1;exitY=0.25;exitDx=0;exitDy=0;" edge="1" parent="mBOrtPpuqhOO7889HyFN-148" source="mBOrtPpuqhOO7889HyFN-139">
          <mxGeometry width="50" height="50" relative="1" as="geometry">
            <mxPoint x="-12.5" y="5" as="sourcePoint" />
            <mxPoint x="10" y="4.739999999999782" as="targetPoint" />
            <Array as="points">
              <mxPoint y="4.739999999999782" />
            </Array>
          </mxGeometry>
        </mxCell>
        <mxCell id="mBOrtPpuqhOO7889HyFN-150" value="" style="ellipse;whiteSpace=wrap;html=1;aspect=fixed;" vertex="1" parent="mBOrtPpuqhOO7889HyFN-148">
          <mxGeometry x="10" width="10" height="10" as="geometry" />
        </mxCell>
        <mxCell id="mBOrtPpuqhOO7889HyFN-151" value="" style="group" vertex="1" connectable="0" parent="1">
          <mxGeometry x="1058.74" y="1610" width="20" height="10" as="geometry" />
        </mxCell>
        <mxCell id="mBOrtPpuqhOO7889HyFN-152" value="" style="endArrow=none;html=1;rounded=0;exitX=1.003;exitY=0.39;exitDx=0;exitDy=0;exitPerimeter=0;" edge="1" parent="mBOrtPpuqhOO7889HyFN-151" source="mBOrtPpuqhOO7889HyFN-139">
          <mxGeometry width="50" height="50" relative="1" as="geometry">
            <mxPoint x="-12.5" y="5" as="sourcePoint" />
            <mxPoint x="10" y="4.739999999999782" as="targetPoint" />
            <Array as="points">
              <mxPoint y="4.739999999999782" />
            </Array>
          </mxGeometry>
        </mxCell>
        <mxCell id="mBOrtPpuqhOO7889HyFN-153" value="" style="ellipse;whiteSpace=wrap;html=1;aspect=fixed;" vertex="1" parent="mBOrtPpuqhOO7889HyFN-151">
          <mxGeometry x="10" width="10" height="10" as="geometry" />
        </mxCell>
        <mxCell id="mBOrtPpuqhOO7889HyFN-154" value="" style="group" vertex="1" connectable="0" parent="1">
          <mxGeometry x="1058.74" y="1630" width="20" height="10" as="geometry" />
        </mxCell>
        <mxCell id="mBOrtPpuqhOO7889HyFN-155" value="" style="endArrow=none;html=1;rounded=0;exitX=1.003;exitY=0.533;exitDx=0;exitDy=0;exitPerimeter=0;" edge="1" parent="mBOrtPpuqhOO7889HyFN-154" source="mBOrtPpuqhOO7889HyFN-139">
          <mxGeometry width="50" height="50" relative="1" as="geometry">
            <mxPoint x="-12.5" y="5" as="sourcePoint" />
            <mxPoint x="10" y="4.739999999999782" as="targetPoint" />
            <Array as="points">
              <mxPoint y="4.739999999999782" />
            </Array>
          </mxGeometry>
        </mxCell>
        <mxCell id="mBOrtPpuqhOO7889HyFN-156" value="" style="ellipse;whiteSpace=wrap;html=1;aspect=fixed;" vertex="1" parent="mBOrtPpuqhOO7889HyFN-154">
          <mxGeometry x="10" width="10" height="10" as="geometry" />
        </mxCell>
        <mxCell id="mBOrtPpuqhOO7889HyFN-160" value="Accion" style="rounded=0;whiteSpace=wrap;html=1;fillColor=#f5f5f5;fontColor=#333333;strokeColor=#666666;" vertex="1" parent="1">
          <mxGeometry x="120" y="1370" width="120" height="140" as="geometry" />
        </mxCell>
        <mxCell id="mBOrtPpuqhOO7889HyFN-161" value="&lt;u&gt;ID_Accion&lt;/u&gt;" style="text;html=1;strokeColor=none;fillColor=none;align=center;verticalAlign=middle;whiteSpace=wrap;rounded=0;fontSize=10;" vertex="1" parent="1">
          <mxGeometry x="301.25" y="1370" width="30" height="20" as="geometry" />
        </mxCell>
        <mxCell id="mBOrtPpuqhOO7889HyFN-162" value="Nombre" style="text;html=1;strokeColor=none;fillColor=none;align=center;verticalAlign=middle;whiteSpace=wrap;rounded=0;fontSize=10;" vertex="1" parent="1">
          <mxGeometry x="290" y="1400" width="50" height="11.25" as="geometry" />
        </mxCell>
        <mxCell id="mBOrtPpuqhOO7889HyFN-165" value="CodigoTicker" style="text;html=1;strokeColor=none;fillColor=none;align=center;verticalAlign=middle;whiteSpace=wrap;rounded=0;fontSize=10;" vertex="1" parent="1">
          <mxGeometry x="290" y="1420" width="50" height="11.25" as="geometry" />
        </mxCell>
        <mxCell id="mBOrtPpuqhOO7889HyFN-166" value="" style="group" vertex="1" connectable="0" parent="1">
          <mxGeometry x="260" y="1380" width="20" height="10" as="geometry" />
        </mxCell>
        <mxCell id="mBOrtPpuqhOO7889HyFN-167" value="" style="endArrow=none;html=1;rounded=0;exitX=1.006;exitY=0.101;exitDx=0;exitDy=0;exitPerimeter=0;" edge="1" parent="mBOrtPpuqhOO7889HyFN-166" source="mBOrtPpuqhOO7889HyFN-160">
          <mxGeometry width="50" height="50" relative="1" as="geometry">
            <mxPoint x="-12.5" y="5" as="sourcePoint" />
            <mxPoint x="10" y="4.739999999999782" as="targetPoint" />
            <Array as="points">
              <mxPoint y="4.739999999999782" />
            </Array>
          </mxGeometry>
        </mxCell>
        <mxCell id="mBOrtPpuqhOO7889HyFN-168" value="" style="ellipse;whiteSpace=wrap;html=1;aspect=fixed;fillColor=#000000;" vertex="1" parent="mBOrtPpuqhOO7889HyFN-166">
          <mxGeometry x="10" width="10" height="10" as="geometry" />
        </mxCell>
        <mxCell id="mBOrtPpuqhOO7889HyFN-169" value="" style="group" vertex="1" connectable="0" parent="1">
          <mxGeometry x="260" y="1400" width="20" height="10" as="geometry" />
        </mxCell>
        <mxCell id="mBOrtPpuqhOO7889HyFN-170" value="" style="endArrow=none;html=1;rounded=0;exitX=1;exitY=0.25;exitDx=0;exitDy=0;" edge="1" parent="mBOrtPpuqhOO7889HyFN-169" source="mBOrtPpuqhOO7889HyFN-160">
          <mxGeometry width="50" height="50" relative="1" as="geometry">
            <mxPoint x="-12.5" y="5" as="sourcePoint" />
            <mxPoint x="10" y="4.739999999999782" as="targetPoint" />
            <Array as="points">
              <mxPoint y="4.739999999999782" />
            </Array>
          </mxGeometry>
        </mxCell>
        <mxCell id="mBOrtPpuqhOO7889HyFN-171" value="" style="ellipse;whiteSpace=wrap;html=1;aspect=fixed;" vertex="1" parent="mBOrtPpuqhOO7889HyFN-169">
          <mxGeometry x="10" width="10" height="10" as="geometry" />
        </mxCell>
        <mxCell id="mBOrtPpuqhOO7889HyFN-172" value="" style="group" vertex="1" connectable="0" parent="1">
          <mxGeometry x="260" y="1420" width="20" height="10" as="geometry" />
        </mxCell>
        <mxCell id="mBOrtPpuqhOO7889HyFN-173" value="" style="endArrow=none;html=1;rounded=0;exitX=1.003;exitY=0.39;exitDx=0;exitDy=0;exitPerimeter=0;" edge="1" parent="mBOrtPpuqhOO7889HyFN-172" source="mBOrtPpuqhOO7889HyFN-160">
          <mxGeometry width="50" height="50" relative="1" as="geometry">
            <mxPoint x="-12.5" y="5" as="sourcePoint" />
            <mxPoint x="10" y="4.739999999999782" as="targetPoint" />
            <Array as="points">
              <mxPoint y="4.739999999999782" />
            </Array>
          </mxGeometry>
        </mxCell>
        <mxCell id="mBOrtPpuqhOO7889HyFN-174" value="" style="ellipse;whiteSpace=wrap;html=1;aspect=fixed;" vertex="1" parent="mBOrtPpuqhOO7889HyFN-172">
          <mxGeometry x="10" width="10" height="10" as="geometry" />
        </mxCell>
        <mxCell id="mBOrtPpuqhOO7889HyFN-181" value="Transaccion" style="rounded=0;whiteSpace=wrap;html=1;fillColor=#f5f5f5;fontColor=#333333;strokeColor=#666666;" vertex="1" parent="1">
          <mxGeometry x="480" y="1560" width="120" height="140" as="geometry" />
        </mxCell>
        <mxCell id="mBOrtPpuqhOO7889HyFN-182" value="&lt;u&gt;ID_Transaccion&lt;/u&gt;" style="text;html=1;strokeColor=none;fillColor=none;align=center;verticalAlign=middle;whiteSpace=wrap;rounded=0;fontSize=10;" vertex="1" parent="1">
          <mxGeometry x="669.9999999999999" y="1560" width="30" height="20" as="geometry" />
        </mxCell>
        <mxCell id="mBOrtPpuqhOO7889HyFN-183" value="Tipo" style="text;html=1;strokeColor=none;fillColor=none;align=center;verticalAlign=middle;whiteSpace=wrap;rounded=0;fontSize=10;" vertex="1" parent="1">
          <mxGeometry x="649.9999999999999" y="1590" width="50" height="11.25" as="geometry" />
        </mxCell>
        <mxCell id="mBOrtPpuqhOO7889HyFN-186" value="Cantidad" style="text;html=1;strokeColor=none;fillColor=none;align=center;verticalAlign=middle;whiteSpace=wrap;rounded=0;fontSize=10;" vertex="1" parent="1">
          <mxGeometry x="649.9999999999999" y="1610" width="50" height="11.25" as="geometry" />
        </mxCell>
        <mxCell id="mBOrtPpuqhOO7889HyFN-187" value="" style="group" vertex="1" connectable="0" parent="1">
          <mxGeometry x="620" y="1570" width="20" height="10" as="geometry" />
        </mxCell>
        <mxCell id="mBOrtPpuqhOO7889HyFN-188" value="" style="endArrow=none;html=1;rounded=0;exitX=1.006;exitY=0.101;exitDx=0;exitDy=0;exitPerimeter=0;" edge="1" parent="mBOrtPpuqhOO7889HyFN-187" source="mBOrtPpuqhOO7889HyFN-181">
          <mxGeometry width="50" height="50" relative="1" as="geometry">
            <mxPoint x="-12.5" y="5" as="sourcePoint" />
            <mxPoint x="10" y="4.739999999999782" as="targetPoint" />
            <Array as="points">
              <mxPoint y="4.739999999999782" />
            </Array>
          </mxGeometry>
        </mxCell>
        <mxCell id="mBOrtPpuqhOO7889HyFN-189" value="" style="ellipse;whiteSpace=wrap;html=1;aspect=fixed;fillColor=#000000;" vertex="1" parent="mBOrtPpuqhOO7889HyFN-187">
          <mxGeometry x="10" width="10" height="10" as="geometry" />
        </mxCell>
        <mxCell id="mBOrtPpuqhOO7889HyFN-190" value="" style="group" vertex="1" connectable="0" parent="1">
          <mxGeometry x="620" y="1590" width="20" height="10" as="geometry" />
        </mxCell>
        <mxCell id="mBOrtPpuqhOO7889HyFN-191" value="" style="endArrow=none;html=1;rounded=0;exitX=1;exitY=0.25;exitDx=0;exitDy=0;" edge="1" parent="mBOrtPpuqhOO7889HyFN-190" source="mBOrtPpuqhOO7889HyFN-181">
          <mxGeometry width="50" height="50" relative="1" as="geometry">
            <mxPoint x="-12.5" y="5" as="sourcePoint" />
            <mxPoint x="10" y="4.739999999999782" as="targetPoint" />
            <Array as="points">
              <mxPoint y="4.739999999999782" />
            </Array>
          </mxGeometry>
        </mxCell>
        <mxCell id="mBOrtPpuqhOO7889HyFN-192" value="" style="ellipse;whiteSpace=wrap;html=1;aspect=fixed;" vertex="1" parent="mBOrtPpuqhOO7889HyFN-190">
          <mxGeometry x="10" width="10" height="10" as="geometry" />
        </mxCell>
        <mxCell id="mBOrtPpuqhOO7889HyFN-193" value="" style="group" vertex="1" connectable="0" parent="1">
          <mxGeometry x="620" y="1610" width="20" height="10" as="geometry" />
        </mxCell>
        <mxCell id="mBOrtPpuqhOO7889HyFN-194" value="" style="endArrow=none;html=1;rounded=0;exitX=1.003;exitY=0.39;exitDx=0;exitDy=0;exitPerimeter=0;" edge="1" parent="mBOrtPpuqhOO7889HyFN-193" source="mBOrtPpuqhOO7889HyFN-181">
          <mxGeometry width="50" height="50" relative="1" as="geometry">
            <mxPoint x="-12.5" y="5" as="sourcePoint" />
            <mxPoint x="10" y="4.739999999999782" as="targetPoint" />
            <Array as="points">
              <mxPoint y="4.739999999999782" />
            </Array>
          </mxGeometry>
        </mxCell>
        <mxCell id="mBOrtPpuqhOO7889HyFN-195" value="" style="ellipse;whiteSpace=wrap;html=1;aspect=fixed;" vertex="1" parent="mBOrtPpuqhOO7889HyFN-193">
          <mxGeometry x="10" width="10" height="10" as="geometry" />
        </mxCell>
        <mxCell id="mBOrtPpuqhOO7889HyFN-202" value="ArticulosAprendizaje" style="rounded=0;whiteSpace=wrap;html=1;fillColor=#f5f5f5;fontColor=#333333;strokeColor=#666666;" vertex="1" parent="1">
          <mxGeometry x="1400" y="1560" width="120" height="140" as="geometry" />
        </mxCell>
        <mxCell id="mBOrtPpuqhOO7889HyFN-203" value="&lt;u&gt;ID_Usuario&lt;/u&gt;" style="text;html=1;strokeColor=none;fillColor=none;align=center;verticalAlign=middle;whiteSpace=wrap;rounded=0;fontSize=10;" vertex="1" parent="1">
          <mxGeometry x="1581.25" y="1560" width="30" height="20" as="geometry" />
        </mxCell>
        <mxCell id="mBOrtPpuqhOO7889HyFN-204" value="Nombre" style="text;html=1;strokeColor=none;fillColor=none;align=center;verticalAlign=middle;whiteSpace=wrap;rounded=0;fontSize=10;" vertex="1" parent="1">
          <mxGeometry x="1570" y="1590" width="50" height="11.25" as="geometry" />
        </mxCell>
        <mxCell id="mBOrtPpuqhOO7889HyFN-205" value="Email" style="text;html=1;strokeColor=none;fillColor=none;align=center;verticalAlign=middle;whiteSpace=wrap;rounded=0;fontSize=10;" vertex="1" parent="1">
          <mxGeometry x="1575.62" y="1628.13" width="32.5" height="13.75" as="geometry" />
        </mxCell>
        <mxCell id="mBOrtPpuqhOO7889HyFN-206" value="Contraseña" style="text;html=1;strokeColor=none;fillColor=none;align=center;verticalAlign=middle;whiteSpace=wrap;rounded=0;fontSize=10;" vertex="1" parent="1">
          <mxGeometry x="1581.25" y="1645" width="32.5" height="15" as="geometry" />
        </mxCell>
        <mxCell id="mBOrtPpuqhOO7889HyFN-207" value="Apellido" style="text;html=1;strokeColor=none;fillColor=none;align=center;verticalAlign=middle;whiteSpace=wrap;rounded=0;fontSize=10;" vertex="1" parent="1">
          <mxGeometry x="1570" y="1610" width="50" height="11.25" as="geometry" />
        </mxCell>
        <mxCell id="mBOrtPpuqhOO7889HyFN-208" value="" style="group" vertex="1" connectable="0" parent="1">
          <mxGeometry x="1540" y="1570" width="20" height="10" as="geometry" />
        </mxCell>
        <mxCell id="mBOrtPpuqhOO7889HyFN-209" value="" style="endArrow=none;html=1;rounded=0;exitX=1.006;exitY=0.101;exitDx=0;exitDy=0;exitPerimeter=0;" edge="1" parent="mBOrtPpuqhOO7889HyFN-208" source="mBOrtPpuqhOO7889HyFN-202">
          <mxGeometry width="50" height="50" relative="1" as="geometry">
            <mxPoint x="-12.5" y="5" as="sourcePoint" />
            <mxPoint x="10" y="4.739999999999782" as="targetPoint" />
            <Array as="points">
              <mxPoint y="4.739999999999782" />
            </Array>
          </mxGeometry>
        </mxCell>
        <mxCell id="mBOrtPpuqhOO7889HyFN-210" value="" style="ellipse;whiteSpace=wrap;html=1;aspect=fixed;fillColor=#000000;" vertex="1" parent="mBOrtPpuqhOO7889HyFN-208">
          <mxGeometry x="10" width="10" height="10" as="geometry" />
        </mxCell>
        <mxCell id="mBOrtPpuqhOO7889HyFN-211" value="" style="group" vertex="1" connectable="0" parent="1">
          <mxGeometry x="1540" y="1590" width="20" height="10" as="geometry" />
        </mxCell>
        <mxCell id="mBOrtPpuqhOO7889HyFN-212" value="" style="endArrow=none;html=1;rounded=0;exitX=1;exitY=0.25;exitDx=0;exitDy=0;" edge="1" parent="mBOrtPpuqhOO7889HyFN-211" source="mBOrtPpuqhOO7889HyFN-202">
          <mxGeometry width="50" height="50" relative="1" as="geometry">
            <mxPoint x="-12.5" y="5" as="sourcePoint" />
            <mxPoint x="10" y="4.739999999999782" as="targetPoint" />
            <Array as="points">
              <mxPoint y="4.739999999999782" />
            </Array>
          </mxGeometry>
        </mxCell>
        <mxCell id="mBOrtPpuqhOO7889HyFN-213" value="" style="ellipse;whiteSpace=wrap;html=1;aspect=fixed;" vertex="1" parent="mBOrtPpuqhOO7889HyFN-211">
          <mxGeometry x="10" width="10" height="10" as="geometry" />
        </mxCell>
        <mxCell id="mBOrtPpuqhOO7889HyFN-214" value="" style="group" vertex="1" connectable="0" parent="1">
          <mxGeometry x="1540" y="1610" width="20" height="10" as="geometry" />
        </mxCell>
        <mxCell id="mBOrtPpuqhOO7889HyFN-215" value="" style="endArrow=none;html=1;rounded=0;exitX=1.003;exitY=0.39;exitDx=0;exitDy=0;exitPerimeter=0;" edge="1" parent="mBOrtPpuqhOO7889HyFN-214" source="mBOrtPpuqhOO7889HyFN-202">
          <mxGeometry width="50" height="50" relative="1" as="geometry">
            <mxPoint x="-12.5" y="5" as="sourcePoint" />
            <mxPoint x="10" y="4.739999999999782" as="targetPoint" />
            <Array as="points">
              <mxPoint y="4.739999999999782" />
            </Array>
          </mxGeometry>
        </mxCell>
        <mxCell id="mBOrtPpuqhOO7889HyFN-216" value="" style="ellipse;whiteSpace=wrap;html=1;aspect=fixed;" vertex="1" parent="mBOrtPpuqhOO7889HyFN-214">
          <mxGeometry x="10" width="10" height="10" as="geometry" />
        </mxCell>
        <mxCell id="mBOrtPpuqhOO7889HyFN-217" value="" style="group" vertex="1" connectable="0" parent="1">
          <mxGeometry x="1540" y="1630" width="20" height="10" as="geometry" />
        </mxCell>
        <mxCell id="mBOrtPpuqhOO7889HyFN-218" value="" style="endArrow=none;html=1;rounded=0;exitX=1.003;exitY=0.533;exitDx=0;exitDy=0;exitPerimeter=0;" edge="1" parent="mBOrtPpuqhOO7889HyFN-217" source="mBOrtPpuqhOO7889HyFN-202">
          <mxGeometry width="50" height="50" relative="1" as="geometry">
            <mxPoint x="-12.5" y="5" as="sourcePoint" />
            <mxPoint x="10" y="4.739999999999782" as="targetPoint" />
            <Array as="points">
              <mxPoint y="4.739999999999782" />
            </Array>
          </mxGeometry>
        </mxCell>
        <mxCell id="mBOrtPpuqhOO7889HyFN-219" value="" style="ellipse;whiteSpace=wrap;html=1;aspect=fixed;" vertex="1" parent="mBOrtPpuqhOO7889HyFN-217">
          <mxGeometry x="10" width="10" height="10" as="geometry" />
        </mxCell>
        <mxCell id="mBOrtPpuqhOO7889HyFN-220" value="" style="group" vertex="1" connectable="0" parent="1">
          <mxGeometry x="1540" y="1650" width="20" height="10" as="geometry" />
        </mxCell>
        <mxCell id="mBOrtPpuqhOO7889HyFN-221" value="" style="endArrow=none;html=1;rounded=0;exitX=0.997;exitY=0.679;exitDx=0;exitDy=0;exitPerimeter=0;" edge="1" parent="mBOrtPpuqhOO7889HyFN-220" source="mBOrtPpuqhOO7889HyFN-202">
          <mxGeometry width="50" height="50" relative="1" as="geometry">
            <mxPoint x="-12.5" y="5" as="sourcePoint" />
            <mxPoint x="10" y="4.739999999999782" as="targetPoint" />
            <Array as="points">
              <mxPoint y="4.739999999999782" />
            </Array>
          </mxGeometry>
        </mxCell>
        <mxCell id="mBOrtPpuqhOO7889HyFN-222" value="" style="ellipse;whiteSpace=wrap;html=1;aspect=fixed;" vertex="1" parent="mBOrtPpuqhOO7889HyFN-220">
          <mxGeometry x="10" width="10" height="10" as="geometry" />
        </mxCell>
        <mxCell id="mBOrtPpuqhOO7889HyFN-226" value="&lt;font style=&quot;font-size: 9px;&quot;&gt;Tiene&lt;/font&gt;" style="rhombus;whiteSpace=wrap;html=1;fillColor=#e1d5e7;strokeColor=#9673a6;" vertex="1" parent="1">
          <mxGeometry x="918.74" y="1430" width="115" height="45.63" as="geometry" />
        </mxCell>
        <mxCell id="mBOrtPpuqhOO7889HyFN-227" value="" style="endArrow=classic;html=1;rounded=0;exitX=0.5;exitY=0;exitDx=0;exitDy=0;entryX=0.45;entryY=1.026;entryDx=0;entryDy=0;entryPerimeter=0;" edge="1" parent="1" source="mBOrtPpuqhOO7889HyFN-226" target="prlSk9jaepIru-q5QV4R-1">
          <mxGeometry width="50" height="50" relative="1" as="geometry">
            <mxPoint x="980" y="1470" as="sourcePoint" />
            <mxPoint x="950" y="1360" as="targetPoint" />
          </mxGeometry>
        </mxCell>
        <mxCell id="mBOrtPpuqhOO7889HyFN-228" value="" style="endArrow=classic;html=1;rounded=0;exitX=0.5;exitY=1;exitDx=0;exitDy=0;entryX=0.5;entryY=0;entryDx=0;entryDy=0;" edge="1" parent="1" source="mBOrtPpuqhOO7889HyFN-226" target="mBOrtPpuqhOO7889HyFN-139">
          <mxGeometry width="50" height="50" relative="1" as="geometry">
            <mxPoint x="950" y="1540" as="sourcePoint" />
            <mxPoint x="940" y="1570" as="targetPoint" />
          </mxGeometry>
        </mxCell>
        <mxCell id="mBOrtPpuqhOO7889HyFN-229" value="&lt;font style=&quot;font-size: 9px;&quot;&gt;Realiza&lt;/font&gt;" style="rhombus;whiteSpace=wrap;html=1;fillColor=#e1d5e7;strokeColor=#9673a6;" vertex="1" parent="1">
          <mxGeometry x="710" y="1770" width="115" height="45.63" as="geometry" />
        </mxCell>
        <mxCell id="mBOrtPpuqhOO7889HyFN-230" value="" style="endArrow=classic;html=1;rounded=0;entryX=0.5;entryY=1;entryDx=0;entryDy=0;exitX=1;exitY=0.5;exitDx=0;exitDy=0;" edge="1" parent="1" source="mBOrtPpuqhOO7889HyFN-229" target="mBOrtPpuqhOO7889HyFN-139">
          <mxGeometry width="50" height="50" relative="1" as="geometry">
            <mxPoint x="740" y="1680" as="sourcePoint" />
            <mxPoint x="790" y="1630" as="targetPoint" />
            <Array as="points">
              <mxPoint x="980" y="1793" />
            </Array>
          </mxGeometry>
        </mxCell>
        <mxCell id="mBOrtPpuqhOO7889HyFN-237" value="Fecha" style="text;html=1;strokeColor=none;fillColor=none;align=center;verticalAlign=middle;whiteSpace=wrap;rounded=0;fontSize=10;" vertex="1" parent="1">
          <mxGeometry x="780" y="1851.25" width="50" height="11.25" as="geometry" />
        </mxCell>
        <mxCell id="mBOrtPpuqhOO7889HyFN-238" value="" style="group" vertex="1" connectable="0" parent="1">
          <mxGeometry x="795" y="1841.25" width="35" height="10" as="geometry" />
        </mxCell>
        <mxCell id="mBOrtPpuqhOO7889HyFN-239" value="" style="endArrow=none;html=1;rounded=0;exitX=0.64;exitY=0.889;exitDx=0;exitDy=0;exitPerimeter=0;" edge="1" parent="mBOrtPpuqhOO7889HyFN-238" source="mBOrtPpuqhOO7889HyFN-229">
          <mxGeometry width="50" height="50" relative="1" as="geometry">
            <mxPoint x="-21.875" y="5" as="sourcePoint" />
            <mxPoint x="-11" y="8.75" as="targetPoint" />
            <Array as="points" />
          </mxGeometry>
        </mxCell>
        <mxCell id="mBOrtPpuqhOO7889HyFN-240" value="" style="ellipse;whiteSpace=wrap;html=1;aspect=fixed;" vertex="1" parent="1">
          <mxGeometry x="780" y="1841.25" width="10" height="10" as="geometry" />
        </mxCell>
        <mxCell id="mBOrtPpuqhOO7889HyFN-241" value="" style="endArrow=none;html=1;rounded=0;exitX=0;exitY=0.5;exitDx=0;exitDy=0;entryX=0.463;entryY=1.002;entryDx=0;entryDy=0;entryPerimeter=0;" edge="1" parent="1" source="mBOrtPpuqhOO7889HyFN-229" target="mBOrtPpuqhOO7889HyFN-181">
          <mxGeometry width="50" height="50" relative="1" as="geometry">
            <mxPoint x="710" y="1740" as="sourcePoint" />
            <mxPoint x="760" y="1690" as="targetPoint" />
            <Array as="points">
              <mxPoint x="536" y="1793" />
            </Array>
          </mxGeometry>
        </mxCell>
        <mxCell id="mBOrtPpuqhOO7889HyFN-242" value="&lt;font style=&quot;font-size: 9px;&quot;&gt;Pertenece&lt;/font&gt;" style="rhombus;whiteSpace=wrap;html=1;fillColor=#e1d5e7;strokeColor=#9673a6;" vertex="1" parent="1">
          <mxGeometry x="122.5" y="1607.18" width="115" height="45.63" as="geometry" />
        </mxCell>
        <mxCell id="mBOrtPpuqhOO7889HyFN-243" value="" style="endArrow=classic;html=1;rounded=0;entryX=0.5;entryY=1;entryDx=0;entryDy=0;exitX=0.5;exitY=0;exitDx=0;exitDy=0;" edge="1" parent="1" source="mBOrtPpuqhOO7889HyFN-242" target="mBOrtPpuqhOO7889HyFN-160">
          <mxGeometry width="50" height="50" relative="1" as="geometry">
            <mxPoint x="510" y="1600" as="sourcePoint" />
            <mxPoint x="560" y="1550" as="targetPoint" />
          </mxGeometry>
        </mxCell>
        <mxCell id="mBOrtPpuqhOO7889HyFN-244" value="" style="endArrow=none;html=1;rounded=0;exitX=1;exitY=0.5;exitDx=0;exitDy=0;entryX=0;entryY=0.5;entryDx=0;entryDy=0;" edge="1" parent="1" source="mBOrtPpuqhOO7889HyFN-242" target="mBOrtPpuqhOO7889HyFN-181">
          <mxGeometry width="50" height="50" relative="1" as="geometry">
            <mxPoint x="510" y="1600" as="sourcePoint" />
            <mxPoint x="560" y="1550" as="targetPoint" />
          </mxGeometry>
        </mxCell>
        <mxCell id="mBOrtPpuqhOO7889HyFN-245" value="Precio" style="text;html=1;strokeColor=none;fillColor=none;align=center;verticalAlign=middle;whiteSpace=wrap;rounded=0;fontSize=10;" vertex="1" parent="1">
          <mxGeometry x="200" y="1660" width="47.5" height="11.25" as="geometry" />
        </mxCell>
        <mxCell id="mBOrtPpuqhOO7889HyFN-257" value="" style="group" vertex="1" connectable="0" parent="1">
          <mxGeometry x="200" y="1645" width="20" height="10" as="geometry" />
        </mxCell>
        <mxCell id="mBOrtPpuqhOO7889HyFN-258" value="" style="endArrow=none;html=1;rounded=0;exitX=0.997;exitY=0.679;exitDx=0;exitDy=0;exitPerimeter=0;" edge="1" parent="mBOrtPpuqhOO7889HyFN-257">
          <mxGeometry width="50" height="50" relative="1" as="geometry">
            <mxPoint x="-12.5" y="5" as="sourcePoint" />
            <mxPoint x="10" y="4.739999999999782" as="targetPoint" />
            <Array as="points">
              <mxPoint y="4.739999999999782" />
            </Array>
          </mxGeometry>
        </mxCell>
        <mxCell id="mBOrtPpuqhOO7889HyFN-259" value="" style="ellipse;whiteSpace=wrap;html=1;aspect=fixed;" vertex="1" parent="mBOrtPpuqhOO7889HyFN-257">
          <mxGeometry x="10" width="10" height="10" as="geometry" />
        </mxCell>
        <mxCell id="mBOrtPpuqhOO7889HyFN-260" value="&lt;font style=&quot;font-size: 9px;&quot;&gt;Marca&lt;/font&gt;" style="rhombus;whiteSpace=wrap;html=1;fillColor=#e1d5e7;strokeColor=#9673a6;" vertex="1" parent="1">
          <mxGeometry x="122.5" y="1224.3700000000001" width="115" height="45.63" as="geometry" />
        </mxCell>
        <mxCell id="mBOrtPpuqhOO7889HyFN-261" value="" style="endArrow=classic;html=1;rounded=0;entryX=0.5;entryY=0;entryDx=0;entryDy=0;exitX=0.5;exitY=1;exitDx=0;exitDy=0;" edge="1" parent="1" source="mBOrtPpuqhOO7889HyFN-260" target="mBOrtPpuqhOO7889HyFN-160">
          <mxGeometry width="50" height="50" relative="1" as="geometry">
            <mxPoint x="530" y="1430" as="sourcePoint" />
            <mxPoint x="580" y="1380" as="targetPoint" />
          </mxGeometry>
        </mxCell>
        <mxCell id="mBOrtPpuqhOO7889HyFN-262" value="" style="endArrow=none;html=1;rounded=0;entryX=-0.021;entryY=0.463;entryDx=0;entryDy=0;entryPerimeter=0;exitX=1;exitY=0.5;exitDx=0;exitDy=0;" edge="1" parent="1" source="mBOrtPpuqhOO7889HyFN-260" target="mBOrtPpuqhOO7889HyFN-118">
          <mxGeometry width="50" height="50" relative="1" as="geometry">
            <mxPoint x="350" y="1340" as="sourcePoint" />
            <mxPoint x="400" y="1290" as="targetPoint" />
          </mxGeometry>
        </mxCell>
        <mxCell id="mBOrtPpuqhOO7889HyFN-263" value="&lt;font size=&quot;1&quot;&gt;Posee&lt;/font&gt;" style="rhombus;whiteSpace=wrap;html=1;fillColor=#e1d5e7;strokeColor=#9673a6;" vertex="1" parent="1">
          <mxGeometry x="700" y="1227.19" width="115" height="45.63" as="geometry" />
        </mxCell>
        <mxCell id="mBOrtPpuqhOO7889HyFN-264" value="" style="endArrow=classic;html=1;rounded=0;entryX=-0.009;entryY=0.473;entryDx=0;entryDy=0;entryPerimeter=0;exitX=1;exitY=0.5;exitDx=0;exitDy=0;" edge="1" parent="1" source="mBOrtPpuqhOO7889HyFN-263" target="prlSk9jaepIru-q5QV4R-1">
          <mxGeometry width="50" height="50" relative="1" as="geometry">
            <mxPoint x="730" y="1310" as="sourcePoint" />
            <mxPoint x="780" y="1260" as="targetPoint" />
          </mxGeometry>
        </mxCell>
        <mxCell id="mBOrtPpuqhOO7889HyFN-265" value="" style="endArrow=none;html=1;rounded=0;entryX=0;entryY=0.5;entryDx=0;entryDy=0;exitX=1;exitY=0.5;exitDx=0;exitDy=0;" edge="1" parent="1" source="mBOrtPpuqhOO7889HyFN-118" target="mBOrtPpuqhOO7889HyFN-263">
          <mxGeometry width="50" height="50" relative="1" as="geometry">
            <mxPoint x="640" y="1310" as="sourcePoint" />
            <mxPoint x="690" y="1260" as="targetPoint" />
          </mxGeometry>
        </mxCell>
      </root>
    </mxGraphModel>
  </diagram>
  <diagram id="eIW5ZGdxf3IG_svYs-oa" name="Página-2">
    <mxGraphModel dx="1506" dy="1160" grid="1" gridSize="10" guides="1" tooltips="1" connect="1" arrows="1" fold="1" page="1" pageScale="1" pageWidth="827" pageHeight="1169" math="0" shadow="0">
      <root>
        <mxCell id="0" />
        <mxCell id="1" parent="0" />
        <mxCell id="vDdrv8NRlQoweYEhDrd5-1" value="" style="group" vertex="1" connectable="0" parent="1">
          <mxGeometry x="1020" y="1110" width="20" height="10" as="geometry" />
        </mxCell>
        <mxCell id="vDdrv8NRlQoweYEhDrd5-2" value="" style="endArrow=none;html=1;rounded=0;exitX=0.992;exitY=0.066;exitDx=0;exitDy=0;exitPerimeter=0;" edge="1" parent="vDdrv8NRlQoweYEhDrd5-1">
          <mxGeometry width="50" height="50" relative="1" as="geometry">
            <mxPoint x="-12.5" y="5" as="sourcePoint" />
            <mxPoint x="10" y="4.739999999999782" as="targetPoint" />
            <Array as="points">
              <mxPoint y="4.739999999999782" />
            </Array>
          </mxGeometry>
        </mxCell>
        <mxCell id="vDdrv8NRlQoweYEhDrd5-3" value="" style="ellipse;whiteSpace=wrap;html=1;aspect=fixed;" vertex="1" parent="vDdrv8NRlQoweYEhDrd5-1">
          <mxGeometry x="10" width="10" height="10" as="geometry" />
        </mxCell>
        <mxCell id="vDdrv8NRlQoweYEhDrd5-4" value="" style="group" vertex="1" connectable="0" parent="1">
          <mxGeometry x="1070" y="1110" width="20" height="10" as="geometry" />
        </mxCell>
        <mxCell id="vDdrv8NRlQoweYEhDrd5-5" value="" style="endArrow=none;html=1;rounded=0;exitX=0.992;exitY=0.066;exitDx=0;exitDy=0;exitPerimeter=0;" edge="1" parent="vDdrv8NRlQoweYEhDrd5-4">
          <mxGeometry width="50" height="50" relative="1" as="geometry">
            <mxPoint x="-12.5" y="5" as="sourcePoint" />
            <mxPoint x="10" y="4.739999999999782" as="targetPoint" />
            <Array as="points">
              <mxPoint y="4.739999999999782" />
            </Array>
          </mxGeometry>
        </mxCell>
        <mxCell id="vDdrv8NRlQoweYEhDrd5-6" value="" style="ellipse;whiteSpace=wrap;html=1;aspect=fixed;fillColor=#000000;" vertex="1" parent="vDdrv8NRlQoweYEhDrd5-4">
          <mxGeometry x="10" width="10" height="10" as="geometry" />
        </mxCell>
        <mxCell id="vDdrv8NRlQoweYEhDrd5-7" value="" style="group" vertex="1" connectable="0" parent="1">
          <mxGeometry x="1005" y="1140" width="35" height="10" as="geometry" />
        </mxCell>
        <mxCell id="vDdrv8NRlQoweYEhDrd5-8" value="" style="endArrow=none;dashed=1;html=1;rounded=0;" edge="1" parent="vDdrv8NRlQoweYEhDrd5-7">
          <mxGeometry width="50" height="50" relative="1" as="geometry">
            <mxPoint y="4.869999999999891" as="sourcePoint" />
            <mxPoint x="30" y="4.869999999999891" as="targetPoint" />
            <Array as="points">
              <mxPoint x="20" y="4.869999999999891" />
            </Array>
          </mxGeometry>
        </mxCell>
        <mxCell id="vDdrv8NRlQoweYEhDrd5-9" value="" style="ellipse;whiteSpace=wrap;html=1;aspect=fixed;" vertex="1" parent="vDdrv8NRlQoweYEhDrd5-7">
          <mxGeometry x="25" width="10" height="10" as="geometry" />
        </mxCell>
        <mxCell id="vDdrv8NRlQoweYEhDrd5-10" value="" style="group" vertex="1" connectable="0" parent="1">
          <mxGeometry x="1058.75" y="1140" width="31.25" height="10" as="geometry" />
        </mxCell>
        <mxCell id="vDdrv8NRlQoweYEhDrd5-11" value="" style="endArrow=none;dashed=1;html=1;rounded=0;" edge="1" parent="vDdrv8NRlQoweYEhDrd5-10" source="vDdrv8NRlQoweYEhDrd5-13">
          <mxGeometry width="50" height="50" relative="1" as="geometry">
            <mxPoint y="4.869999999999891" as="sourcePoint" />
            <mxPoint x="30" y="4.869999999999891" as="targetPoint" />
            <Array as="points">
              <mxPoint x="20" y="4.869999999999891" />
            </Array>
          </mxGeometry>
        </mxCell>
        <mxCell id="vDdrv8NRlQoweYEhDrd5-12" value="" style="endArrow=none;dashed=1;html=1;rounded=0;" edge="1" parent="vDdrv8NRlQoweYEhDrd5-10" target="vDdrv8NRlQoweYEhDrd5-13">
          <mxGeometry width="50" height="50" relative="1" as="geometry">
            <mxPoint y="4.869999999999891" as="sourcePoint" />
            <mxPoint x="30" y="4.869999999999891" as="targetPoint" />
            <Array as="points" />
          </mxGeometry>
        </mxCell>
        <mxCell id="vDdrv8NRlQoweYEhDrd5-13" value="" style="ellipse;whiteSpace=wrap;html=1;aspect=fixed;fillColor=#000000;" vertex="1" parent="vDdrv8NRlQoweYEhDrd5-10">
          <mxGeometry x="21.25" width="10" height="10" as="geometry" />
        </mxCell>
      </root>
    </mxGraphModel>
  </diagram>
</mxfile>
